<?xml version="1.0" encoding="UTF-8" standalone="no"?>
<!-- Created with Inkscape (http://www.inkscape.org/) -->

<svg
   id="svg3355"
   version="1.1"
   inkscape:version="1.2.2 (b0a8486541, 2022-12-01)"
   xml:space="preserve"
   width="1043.3713"
   height="212.18575"
   viewBox="0 0 1043.3713 212.18575"
   sodipodi:docname="ccmar-logotype.svg"
   xmlns:inkscape="http://www.inkscape.org/namespaces/inkscape"
   xmlns:sodipodi="http://sodipodi.sourceforge.net/DTD/sodipodi-0.dtd"
   xmlns="http://www.w3.org/2000/svg"
   xmlns:svg="http://www.w3.org/2000/svg"
   xmlns:rdf="http://www.w3.org/1999/02/22-rdf-syntax-ns#"
   xmlns:cc="http://creativecommons.org/ns#"
   xmlns:dc="http://purl.org/dc/elements/1.1/"><metadata
     id="metadata3361"><rdf:RDF><cc:Work
         rdf:about=""><dc:format>image/svg+xml</dc:format><dc:type
           rdf:resource="http://purl.org/dc/dcmitype/StillImage" /></cc:Work></rdf:RDF></metadata><defs
     id="defs3359"><clipPath
       clipPathUnits="userSpaceOnUse"
       id="clipPath3369"><path
         d="m 222.638,594.594 c -39.098,-6.983 -76.197,-24.07 -108.244,-58.483 v 0 C 3.778,417.381 262.821,296.914 367.259,119.822 v 0 C 401.149,62.385 441.441,7.185 516.005,1.055 v 0 c 174.208,-12.113 239.166,209.229 211.588,318.012 v 0 C 705.23,416.329 652.418,575.388 502.646,570.649 v 0 c -32.781,-1.014 -71.487,6.44 -112.6,13.936 v 0 c -20.196,3.67 -40.967,7.334 -61.901,10.009 v 0 z"
         id="path3371"
         inkscape:connector-curvature="0" /></clipPath><clipPath
       clipPathUnits="userSpaceOnUse"
       id="clipPath3381"><path
         d="M 0,595.28 H 841.89 V 0 H 0 Z"
         id="path3383"
         inkscape:connector-curvature="0" /></clipPath><clipPath
       clipPathUnits="userSpaceOnUse"
       id="clipPath3369-1"><path
         d="m 222.638,594.594 c -39.098,-6.983 -76.197,-24.07 -108.244,-58.483 v 0 C 3.778,417.381 262.821,296.914 367.259,119.822 v 0 C 401.149,62.385 441.441,7.185 516.005,1.055 v 0 c 174.208,-12.113 239.166,209.229 211.588,318.012 v 0 C 705.23,416.329 652.418,575.388 502.646,570.649 v 0 c -32.781,-1.014 -71.487,6.44 -112.6,13.936 v 0 c -20.196,3.67 -40.967,7.334 -61.901,10.009 v 0 z"
         id="path3371-7"
         inkscape:connector-curvature="0" /></clipPath><clipPath
       clipPathUnits="userSpaceOnUse"
       id="clipPath3369-1-7"><path
         d="m 222.638,594.594 c -39.098,-6.983 -76.197,-24.07 -108.244,-58.483 v 0 C 3.778,417.381 262.821,296.914 367.259,119.822 v 0 C 401.149,62.385 441.441,7.185 516.005,1.055 v 0 c 174.208,-12.113 239.166,209.229 211.588,318.012 v 0 C 705.23,416.329 652.418,575.388 502.646,570.649 v 0 c -32.781,-1.014 -71.487,6.44 -112.6,13.936 v 0 c -20.196,3.67 -40.967,7.334 -61.901,10.009 v 0 z"
         id="path3371-7-3"
         inkscape:connector-curvature="0" /></clipPath><clipPath
       clipPathUnits="userSpaceOnUse"
       id="clipPath3369-1-1"><path
         d="m 222.638,594.594 c -39.098,-6.983 -76.197,-24.07 -108.244,-58.483 v 0 C 3.778,417.381 262.821,296.914 367.259,119.822 v 0 C 401.149,62.385 441.441,7.185 516.005,1.055 v 0 c 174.208,-12.113 239.166,209.229 211.588,318.012 v 0 C 705.23,416.329 652.418,575.388 502.646,570.649 v 0 c -32.781,-1.014 -71.487,6.44 -112.6,13.936 v 0 c -20.196,3.67 -40.967,7.334 -61.901,10.009 v 0 z"
         id="path3371-7-6"
         inkscape:connector-curvature="0" /></clipPath></defs><sodipodi:namedview
     pagecolor="#ffffff"
     bordercolor="#666666"
     borderopacity="1"
     objecttolerance="10"
     gridtolerance="10"
     guidetolerance="10"
     inkscape:pageopacity="0"
     inkscape:pageshadow="2"
     inkscape:window-width="2556"
     inkscape:window-height="1329"
     id="namedview3357"
     showgrid="false"
     inkscape:zoom="0.79443796"
     inkscape:cx="415.38801"
     inkscape:cy="337.34541"
     inkscape:window-x="0"
     inkscape:window-y="90"
     inkscape:window-maximized="0"
     inkscape:current-layer="g3363"
     inkscape:showpageshadow="2"
     inkscape:pagecheckerboard="0"
     inkscape:deskcolor="#d1d1d1" /><g
     id="g3363"
     inkscape:groupmode="layer"
     inkscape:label="ccmar1branco"
     transform="matrix(1.25,0,0,-1.25,-3.708375,476.8195)"><path
       inkscape:connector-curvature="0"
       id="path3387"
       style="fill:#58abad;fill-opacity:1;fill-rule:nonzero;stroke:none"
       d="m 209.8027,339.3828 c 10.286,9.874 24.2,15.982 39.548,15.982 15.349,0 29.697,-5.91 40.445,-16.626 2.407,-2.439 5.47,-3.653 9.092,-3.653 7.261,0 12.967,5.685 12.967,13.066 l -0.01,0.324 c -0.252,4.805 -2.828,7.821 -3.66,8.7 -15.573,15.558 -36.47,24.133 -58.834,24.133 -15.494,0 -29.974,-4.34 -42.396,-11.752 -1.261,-0.701 -2.497,-1.44 -3.711,-2.246 -0.377,-0.257 -0.749,-0.523 -1.136,-0.806 -1.131,-0.786 -2.241,-1.623 -3.335,-2.497 -9.627,-7.407 -17.599,-16.835 -23.226,-27.687 -32.938,-69.659 -51.783,-81.119 -51.783,-81.119 -10.469,-9.076 -23.96,-14.274 -37.627,-14.274 -31.55,0 -57.227,25.655 -57.227,57.21 0,31.546 25.677,57.227 57.227,57.227 15.348,0 29.707,-5.91 40.433,-16.626 2.429,-2.439 5.491,-3.653 9.093,-3.653 7.276,0 12.967,5.685 12.967,13.066 l -0.006,0.345 c -0.246,4.784 -2.827,7.8 -3.664,8.679 -15.553,15.558 -36.445,24.133 -58.823,24.133 -45.862,0 -83.17,-37.313 -83.17,-83.171 0,-45.86 37.308,-83.153 83.17,-83.153 22.237,0 43.071,8.569 58.645,24.127 0.854,0.858 13.275,12.579 25.121,34.392 10.533,-33.869 42.145,-58.519 79.448,-58.519 22.248,0 43.062,8.569 58.63,24.127 2.492,2.481 3.874,5.794 3.874,9.296 0,7.272 -5.706,12.973 -12.967,12.973 -3.512,0 -6.805,-1.352 -9.26,-3.796 -10.753,-10.6 -25.441,-16.657 -40.277,-16.657 -31.56,0 -57.232,25.655 -57.232,57.21 0,10.187 2.713,19.746 7.403,28.049 3.34,5.004 6.742,9.48 10.281,13.196" /><path
       inkscape:connector-curvature="0"
       id="path3391"
       style="fill:#58abad;fill-opacity:1;fill-rule:nonzero;stroke:none"
       d="m 485.6172,381.3716 c -4.885,0 -9.418,-2.607 -12.438,-7.156 l -59.498,-89.807 -59.823,89.592 c -2.701,4.66 -7.266,7.455 -12.234,7.455 -6.36,0 -13.071,-4.911 -13.071,-14.009 v -142.506 c 0,-8.852 7.036,-12.894 13.574,-12.894 6.538,0 13.584,4.042 13.584,12.894 v 98.514 l 45.302,-67.875 c 2.56,-4.773 7.213,-7.59 12.469,-7.59 5.135,0 9.925,2.785 12.481,7.25 l 45.483,68.418 v -98.717 c 0,-8.59 6.836,-13.075 13.585,-13.075 6.746,0 13.589,4.485 13.589,13.075 v 142.506 c 0,7.942 -5.597,13.925 -13.003,13.925" /><path
       inkscape:connector-curvature="0"
       id="path3395"
       style="fill:#58abad;fill-opacity:1;fill-rule:nonzero;stroke:none"
       d="m 609.2881,372.7656 c -0.063,0.136 -0.151,0.235 -0.229,0.372 -0.237,0.461 -0.535,0.895 -0.839,1.334 -0.235,0.346 -0.471,0.712 -0.733,1.037 -0.308,0.377 -0.66,0.717 -1,1.057 -0.324,0.325 -0.638,0.65 -0.988,0.953 -0.352,0.272 -0.744,0.534 -1.121,0.786 -0.414,0.266 -0.832,0.549 -1.251,0.774 -0.142,0.083 -0.252,0.178 -0.398,0.262 -0.283,0.125 -0.581,0.198 -0.864,0.298 -0.439,0.189 -0.89,0.372 -1.355,0.519 -0.455,0.13 -0.896,0.23 -1.362,0.314 -0.456,0.088 -0.911,0.167 -1.356,0.204 -0.481,0.057 -0.942,0.072 -1.407,0.072 -0.461,0 -0.927,-0.015 -1.409,-0.072 -0.44,-0.037 -0.895,-0.116 -1.355,-0.204 -0.462,-0.084 -0.905,-0.184 -1.362,-0.314 -0.471,-0.147 -0.921,-0.33 -1.361,-0.519 -0.282,-0.1 -0.57,-0.173 -0.842,-0.298 -0.141,-0.084 -0.273,-0.179 -0.403,-0.257 -0.445,-0.23 -0.853,-0.513 -1.266,-0.785 -0.378,-0.256 -0.749,-0.508 -1.101,-0.78 -0.36,-0.303 -0.68,-0.633 -0.999,-0.953 -0.352,-0.345 -0.696,-0.68 -0.99,-1.057 -0.282,-0.325 -0.518,-0.691 -0.748,-1.047 -0.303,-0.429 -0.581,-0.863 -0.833,-1.324 -0.078,-0.137 -0.173,-0.236 -0.235,-0.372 l -68.727,-139.941 c -3.497,-7.135 -0.57,-15.757 6.559,-19.254 2.046,-1.004 4.204,-1.471 6.333,-1.471 5.309,0 10.418,2.953 12.925,8.052 l 55.814,113.651 55.829,-113.651 c 2.491,-5.099 7.595,-8.052 12.908,-8.052 2.126,0 4.288,0.467 6.334,1.471 7.115,3.497 10.057,12.119 6.56,19.254 z" /><path
       inkscape:connector-curvature="0"
       id="path3399"
       style="fill:#58abad;fill-opacity:1;fill-rule:nonzero;stroke:none"
       d="m 771.7646,270.918 39.058,-52.348 c 4.46,-5.654 9.448,-6.863 12.814,-6.863 5.177,0 10.081,2.916 12.5,7.439 2.482,4.669 1.927,10.072 -1.58,15.254 l -35.188,42.852 3.209,1.277 c 26.602,10.674 34.371,36.91 30.267,58.201 -3.816,19.76 -19.913,42.841 -52.751,42.841 h -71.35 c -6.978,0 -12.433,-5.57 -12.433,-12.684 V 225.344 c 0,-9.375 6.89,-13.579 13.695,-13.579 6.936,0 14.401,4.407 14.401,14.071 v 128.639 h 55.687 c 8.58,0 15.788,-3.057 20.781,-8.836 4.382,-5.052 6.801,-11.909 6.801,-19.28 0,-14.537 -9.485,-29.278 -27.582,-29.278 -0.335,0 -8.444,-0.058 -11.469,-7.297 -1.859,-4.481 -2.549,-10.637 2.618,-18.008 0.308,-0.409 0.48,-0.721 0.522,-0.858" /></g></svg>
